# xmcd
#
# Track frame offsets:
#	150
#	15684
#	30533
#	44484
#	61775
#	75758
#	89323
#	104606
#	120612
#	134749
#	151531
#	166538
#	180600
#	197000
#	221807
#
# Disc length: 4440 seconds
#
# Revision: 1
# Processed by: cddbd v1.5.1PL0 Copyright (c) Steve Scherf et al.
# Submitted via: audiograbber 1.83.01
#
DISCID=b911560f
DTITLE=João Mineiro and Marciano - Com Você
DYEAR=1900
DGENRE=Sertaneja
TTITLE0=Se Eu Pudesse Conversar Com deus
TTITLE1=Cilada
TTITLE2=O Quanto Eu Te Quero (Lo Mucho Que Te Quiero)
TTITLE3=Amor Tem Que Ser Amor
TTITLE4=A Pretendida
TTITLE5=Lembranças De Um Amor
TTITLE6=Tudo Passará
TTITLE7=Não Se Bate Em Quem Se Ama
TTITLE8=A Bailarina
TTITLE9=Eu Daria Minha Vida
TTITLE10=Viciado Em Você
TTITLE11=Ainda Ontem Chorei De Saudade
TTITLE12=Esse Meu Coração Sem Juiso
TTITLE13=Aline
TTITLE14=Dados da faixa
EXTD=
EXTT0=
EXTT1=
EXTT2=
EXTT3=
EXTT4=
EXTT5=
EXTT6=
EXTT7=
EXTT8=
EXTT9=
EXTT10=
EXTT11=
EXTT12=
EXTT13=
EXTT14=
PLAYORDER=
